  0
SECTION
  2
HEADER
  9
$LIMMIN
 10
-1.165215
 20
-2.053116
  9
$LIMMAX
 10
1.274933
 20
1.883095
  9
$FLATLAND
 70
1
  0
ENDSEC
  0
SECTION
  2
ENTITIES
  0
LINE
  8
0
 10
0.321444
 20
1.287328
 11
0.381444
 21
1.287328
  0
LINE
  8
0
 10
0.321444
 20
1.287328
 11
0.321444
 21
1.633578
  0
LINE
  8
0
 10
0.381444
 20
1.287328
 11
0.381444
 21
1.633578
  0
ARC
  8
0
 10
0.227694
 20
1.633578
 40
0.09375
 50
-0.000004
 51
89.999989
  0
ARC
  8
0
 10
0.227694
 20
1.633578
 40
0.15375
 50
-0.000004
 51
89.999989
  0
LINE
  8
0
 10
0.227694
 20
1.727328
 11
-0.864806
 21
1.727328
  0
LINE
  8
0
 10
0.227694
 20
1.787328
 11
-0.864806
 21
1.787328
  0
ARC
  8
0
 10
-0.864806
 20
1.633578
 40
0.09375
 50
89.999989
 51
179.999991
  0
ARC
  8
0
 10
-0.864806
 20
1.633578
 40
0.15375
 50
89.999989
 51
179.999991
  0
LINE
  8
0
 10
-0.958556
 20
1.633578
 11
-0.958556
 21
1.405788
  0
LINE
  8
0
 10
-1.018556
 20
1.633578
 11
-1.018556
 21
1.405788
  0
ARC
  8
0
 10
-1.112306
 20
1.405788
 40
0.09375
 50
320.000018
 51
360.00001
  0
ARC
  8
0
 10
-1.112306
 20
1.405788
 40
0.15375
 50
320.000018
 51
360.00001
  0
LINE
  8
0
 10
-0.994526
 20
1.30696
 11
-1.083282
 21
1.201185
  0
LINE
  8
0
 10
-1.040489
 20
1.345527
 11
-1.129245
 21
1.239752
  0
ARC
  8
0
 10
-1.011465
 20
1.140924
 40
0.09375
 50
140.000013
 51
180.000005
  0
ARC
  8
0
 10
-1.011465
 20
1.140924
 40
0.15375
 50
140.000013
 51
180.000005
  0
LINE
  8
0
 10
-1.105215
 20
1.140924
 11
-1.105215
 21
-1.899366
  0
LINE
  8
0
 10
-1.165215
 20
1.140924
 11
-1.165215
 21
-1.899366
  0
ARC
  8
0
 10
-1.011465
 20
-1.899366
 40
0.09375
 50
180.000005
 51
270.000001
  0
ARC
  8
0
 10
-1.011465
 20
-1.899366
 40
0.15375
 50
180.000005
 51
270.000001
  0
LINE
  8
0
 10
-1.011465
 20
-1.993116
 11
0.243535
 21
-1.993116
  0
LINE
  8
0
 10
-1.011465
 20
-2.053116
 11
0.243535
 21
-2.053116
  0
ARC
  8
0
 10
0.243535
 20
-1.899366
 40
0.09375
 50
-90.000003
 51
-0.000007
  0
ARC
  8
0
 10
0.243535
 20
-1.899366
 40
0.15375
 50
-90.000003
 51
-0.000007
  0
LINE
  8
0
 10
0.337285
 20
-1.899366
 11
0.337285
 21
-1.553116
  0
LINE
  8
0
 10
0.397285
 20
-1.899366
 11
0.397285
 21
-1.553116
  0
LINE
  8
0
 10
0.337285
 20
-1.553116
 11
0.397285
 21
-1.553116
  0
LINE
  8
0
 10
-1.090567
 20
1.383095
 11
-1.018567
 21
1.383095
  0
LINE
  8
0
 10
-1.090567
 20
1.383095
 11
-1.090567
 21
1.739095
  0
LINE
  8
0
 10
-1.018567
 20
1.383095
 11
-1.018567
 21
1.739095
  0
LINE
  8
0
 10
-1.090567
 20
1.632595
 11
-1.018567
 21
1.632595
  0
LINE
  8
0
 10
-1.054567
 20
1.632595
 11
-1.054567
 21
1.633595
  0
LINE
  8
0
 10
-1.090567
 20
1.633595
 11
-1.018567
 21
1.633595
  0
ARC
  8
0
 10
-0.946567
 20
1.739095
 40
0.072
 50
89.999996
 51
179.999991
  0
ARC
  8
0
 10
-0.946567
 20
1.739095
 40
0.144
 50
89.999996
 51
179.999991
  0
LINE
  8
0
 10
-0.946567
 20
1.883095
 11
0.327933
 21
1.883095
  0
LINE
  8
0
 10
-0.946567
 20
1.811095
 11
0.327933
 21
1.811095
  0
ARC
  8
0
 10
0.327933
 20
1.739095
 40
0.072
 50
0.000007
 51
90.000003
  0
ARC
  8
0
 10
0.327933
 20
1.739095
 40
0.144
 50
0.000007
 51
90.000003
  0
LINE
  8
0
 10
0.471933
 20
1.739095
 11
0.471933
 21
0.464595
  0
LINE
  8
0
 10
0.399933
 20
1.739095
 11
0.399933
 21
0.464595
  0
ARC
  8
0
 10
0.543933
 20
0.464595
 40
0.072
 50
-179.999991
 51
-89.999996
  0
ARC
  8
0
 10
0.543933
 20
0.464595
 40
0.144
 50
-179.999991
 51
-89.999996
  0
LINE
  8
0
 10
0.543933
 20
0.392595
 11
1.130933
 21
0.392595
  0
LINE
  8
0
 10
0.543933
 20
0.320595
 11
1.130933
 21
0.320595
  0
ARC
  8
0
 10
1.130933
 20
0.248595
 40
0.072
 50
0.000007
 51
90.000003
  0
ARC
  8
0
 10
1.130933
 20
0.248595
 40
0.144
 50
0.000007
 51
90.000003
  0
LINE
  8
0
 10
1.274933
 20
0.248595
 11
1.274933
 21
-1.900905
  0
LINE
  8
0
 10
1.202933
 20
0.248595
 11
1.202933
 21
-1.900905
  0
ARC
  8
0
 10
1.130933
 20
-1.900905
 40
0.072
 50
-89.999996
 51
0.000004
  0
ARC
  8
0
 10
1.130933
 20
-1.900905
 40
0.144
 50
-89.999996
 51
0.000004
  0
LINE
  8
0
 10
1.130933
 20
-2.044905
 11
0.543933
 21
-2.044905
  0
LINE
  8
0
 10
1.130933
 20
-1.972905
 11
0.543933
 21
-1.972905
  0
ARC
  8
0
 10
0.543933
 20
-1.900905
 40
0.072
 50
180.000005
 51
270.000001
  0
ARC
  8
0
 10
0.543933
 20
-1.900905
 40
0.144
 50
180.000005
 51
270.000001
  0
LINE
  8
0
 10
0.399933
 20
-1.900905
 11
0.399933
 21
-1.544905
  0
LINE
  8
0
 10
0.471933
 20
-1.900905
 11
0.471933
 21
-1.544905
  0
LINE
  8
0
 10
0.399933
 20
-1.544905
 11
0.471933
 21
-1.544905
  0
ENDSEC
  0
EOF
