  0
SECTION
  2
HEADER
  9
$LIMMIN
 10
-0.792796
 20
-1.014165
  9
$LIMMAX
 10
0.792796
 20
1.014165
  9
$FLATLAND
 70
1
  0
ENDSEC
  0
SECTION
  2
ENTITIES
  0
LINE
  8
0
 10
0.705204
 20
-0.546156
 11
0.645204
 21
-0.546156
  0
LINE
  8
0
 10
0.705204
 20
-0.546156
 11
0.705204
 21
-0.769156
  0
LINE
  8
0
 10
0.645204
 20
-0.546156
 11
0.645204
 21
-0.769156
  0
ARC
  8
0
 10
0.520204
 20
-0.769156
 40
0.125
 50
270.000001
 51
359.999955
  0
ARC
  8
0
 10
0.520204
 20
-0.769156
 40
0.185
 50
270.000001
 51
359.999955
  0
LINE
  8
0
 10
0.520204
 20
-0.954156
 11
-0.517796
 21
-0.954155
  0
LINE
  8
0
 10
0.520204
 20
-0.894156
 11
-0.517796
 21
-0.894155
  0
ARC
  8
0
 10
-0.517796
 20
-0.769155
 40
0.125
 50
179.999991
 51
270.000001
  0
ARC
  8
0
 10
-0.517796
 20
-0.769155
 40
0.185
 50
179.999991
 51
270.000001
  0
LINE
  8
0
 10
-0.702796
 20
-0.769155
 11
-0.702796
 21
-0.523437
  0
LINE
  8
0
 10
-0.642796
 20
-0.769155
 11
-0.642796
 21
-0.523437
  0
ARC
  8
0
 10
-0.762796
 20
-0.523437
 40
0.06
 50
-0.000025
 51
59.999995
  0
ARC
  8
0
 10
-0.762796
 20
-0.523437
 40
0.12
 50
-0.000025
 51
59.999995
  0
LINE
  8
0
 10
-0.732796
 20
-0.471476
 11
-0.732796
 21
-0.471476
  0
LINE
  8
0
 10
-0.702796
 20
-0.419514
 11
-0.702796
 21
-0.419514
  0
ARC
  8
0
 10
-0.672796
 20
-0.367553
 40
0.06
 50
179.999991
 51
240.000007
  0
ARC
  8
0
 10
-0.672796
 20
-0.367553
 40
0.12
 50
179.999991
 51
240.000007
  0
LINE
  8
0
 10
-0.792796
 20
-0.367553
 11
-0.792796
 21
0.829165
  0
LINE
  8
0
 10
-0.732796
 20
-0.367553
 11
-0.732796
 21
0.829165
  0
LINE
  8
0
 10
-0.792796
 20
0.563165
 11
-0.732796
 21
0.563165
  0
LINE
  8
0
 10
-0.762796
 20
0.563165
 11
-0.762796
 21
0.763165
  0
LINE
  8
0
 10
-0.792796
 20
0.763165
 11
-0.732796
 21
0.763165
  0
ARC
  8
0
 10
-0.607796
 20
0.829165
 40
0.125
 50
89.999975
 51
179.999978
  0
ARC
  8
0
 10
-0.607796
 20
0.829165
 40
0.185
 50
89.999975
 51
179.999978
  0
LINE
  8
0
 10
-0.607796
 20
1.014165
 11
0.596204
 21
1.014165
  0
LINE
  8
0
 10
-0.607796
 20
0.954165
 11
0.596204
 21
0.954165
  0
ARC
  8
0
 10
0.596204
 20
0.829165
 40
0.125
 50
359.999955
 51
449.999992
  0
ARC
  8
0
 10
0.596204
 20
0.829165
 40
0.185
 50
359.999955
 51
449.999992
  0
LINE
  8
0
 10
0.781204
 20
0.829165
 11
0.781204
 21
0.544165
  0
LINE
  8
0
 10
0.721204
 20
0.829165
 11
0.721204
 21
0.544165
  0
LINE
  8
0
 10
0.781204
 20
0.544165
 11
0.721204
 21
0.544165
  0
LINE
  8
0
 10
-0.705204
 20
0.546156
 11
-0.645204
 21
0.546156
  0
LINE
  8
0
 10
-0.705204
 20
0.546156
 11
-0.705204
 21
0.769156
  0
LINE
  8
0
 10
-0.645204
 20
0.546156
 11
-0.645204
 21
0.769156
  0
LINE
  8
0
 10
-0.705204
 20
0.590756
 11
-0.645204
 21
0.590756
  0
LINE
  8
0
 10
-0.675204
 20
0.590756
 11
-0.675204
 21
0.769156
  0
LINE
  8
0
 10
-0.705204
 20
0.769156
 11
-0.645204
 21
0.769156
  0
ARC
  8
0
 10
-0.520204
 20
0.769156
 40
0.125
 50
89.999989
 51
179.999937
  0
ARC
  8
0
 10
-0.520204
 20
0.769156
 40
0.185
 50
89.999989
 51
179.999937
  0
LINE
  8
0
 10
-0.520204
 20
0.954156
 11
0.517796
 21
0.954155
  0
LINE
  8
0
 10
-0.520204
 20
0.894156
 11
0.517796
 21
0.894155
  0
ARC
  8
0
 10
0.517796
 20
0.769155
 40
0.125
 50
359.999983
 51
449.999992
  0
ARC
  8
0
 10
0.517796
 20
0.769155
 40
0.185
 50
359.999983
 51
449.999992
  0
LINE
  8
0
 10
0.702796
 20
0.769155
 11
0.702796
 21
0.523437
  0
LINE
  8
0
 10
0.642796
 20
0.769155
 11
0.642796
 21
0.523437
  0
ARC
  8
0
 10
0.762796
 20
0.523437
 40
0.06
 50
179.999978
 51
240.000007
  0
ARC
  8
0
 10
0.762796
 20
0.523437
 40
0.12
 50
179.999978
 51
240.000007
  0
LINE
  8
0
 10
0.732796
 20
0.471476
 11
0.732796
 21
0.471476
  0
LINE
  8
0
 10
0.702796
 20
0.419514
 11
0.702796
 21
0.419514
  0
ARC
  8
0
 10
0.672796
 20
0.367553
 40
0.06
 50
359.999983
 51
419.999998
  0
ARC
  8
0
 10
0.672796
 20
0.367553
 40
0.12
 50
359.999983
 51
419.999998
  0
LINE
  8
0
 10
0.792796
 20
0.367553
 11
0.792796
 21
-0.829165
  0
LINE
  8
0
 10
0.732796
 20
0.367553
 11
0.732796
 21
-0.829165
  0
ARC
  8
0
 10
0.607796
 20
-0.829165
 40
0.125
 50
270.000001
 51
359.999983
  0
ARC
  8
0
 10
0.607796
 20
-0.829165
 40
0.185
 50
270.000001
 51
359.999983
  0
LINE
  8
0
 10
0.607796
 20
-1.014165
 11
-0.596204
 21
-1.014165
  0
LINE
  8
0
 10
0.607796
 20
-0.954165
 11
-0.596204
 21
-0.954165
  0
ARC
  8
0
 10
-0.596204
 20
-0.829165
 40
0.125
 50
179.999937
 51
270.000001
  0
ARC
  8
0
 10
-0.596204
 20
-0.829165
 40
0.185
 50
179.999937
 51
270.000001
  0
LINE
  8
0
 10
-0.781204
 20
-0.829165
 11
-0.781204
 21
-0.544165
  0
LINE
  8
0
 10
-0.721204
 20
-0.829165
 11
-0.721204
 21
-0.544165
  0
LINE
  8
0
 10
-0.781204
 20
-0.544165
 11
-0.721204
 21
-0.544165
  0
ENDSEC
  0
EOF
