  0
SECTION
  2
HEADER
  9
$LIMMIN
 10
-0.806318
 20
-1.25864
  9
$LIMMAX
 10
0.806318
 20
1.25864
  9
$FLATLAND
 70
1
  0
ENDSEC
  0
SECTION
  2
ENTITIES
  0
LINE
  8
0
 10
0.691683
 20
-0.801681
 11
0.631683
 21
-0.801681
  0
LINE
  8
0
 10
0.691683
 20
-0.801681
 11
0.691682
 21
-1.024681
  0
LINE
  8
0
 10
0.631683
 20
-0.801681
 11
0.631682
 21
-1.024681
  0
ARC
  8
0
 10
0.506682
 20
-1.024681
 40
0.125
 50
270.000001
 51
359.999955
  0
ARC
  8
0
 10
0.506682
 20
-1.024681
 40
0.185
 50
270.000001
 51
359.999955
  0
LINE
  8
0
 10
0.506682
 20
-1.209681
 11
-0.531318
 21
-1.209681
  0
LINE
  8
0
 10
0.506682
 20
-1.149681
 11
-0.531318
 21
-1.149681
  0
ARC
  8
0
 10
-0.531318
 20
-1.024681
 40
0.125
 50
179.999991
 51
270.000001
  0
ARC
  8
0
 10
-0.531318
 20
-1.024681
 40
0.185
 50
179.999991
 51
270.000001
  0
LINE
  8
0
 10
-0.716318
 20
-1.024681
 11
-0.716317
 21
-0.778963
  0
LINE
  8
0
 10
-0.656318
 20
-1.024681
 11
-0.656317
 21
-0.778963
  0
ARC
  8
0
 10
-0.776317
 20
-0.778963
 40
0.06
 50
-0.000025
 51
59.999995
  0
ARC
  8
0
 10
-0.776317
 20
-0.778963
 40
0.12
 50
-0.000025
 51
59.999995
  0
LINE
  8
0
 10
-0.746318
 20
-0.727001
 11
-0.746318
 21
-0.727001
  0
LINE
  8
0
 10
-0.716318
 20
-0.67504
 11
-0.716318
 21
-0.67504
  0
ARC
  8
0
 10
-0.686318
 20
-0.623078
 40
0.06
 50
179.999991
 51
240.000007
  0
ARC
  8
0
 10
-0.686318
 20
-0.623078
 40
0.12
 50
179.999991
 51
240.000007
  0
LINE
  8
0
 10
-0.806318
 20
-0.623078
 11
-0.806317
 21
1.07364
  0
LINE
  8
0
 10
-0.746318
 20
-0.623078
 11
-0.746317
 21
1.07364
  0
LINE
  8
0
 10
-0.806317
 20
0.28264
 11
-0.746317
 21
0.28264
  0
LINE
  8
0
 10
-0.776317
 20
0.28264
 11
-0.776317
 21
0.28364
  0
LINE
  8
0
 10
-0.806317
 20
0.28364
 11
-0.746317
 21
0.28364
  0
ARC
  8
0
 10
-0.621317
 20
1.07364
 40
0.125
 50
89.999975
 51
179.999978
  0
ARC
  8
0
 10
-0.621317
 20
1.07364
 40
0.185
 50
89.999975
 51
179.999978
  0
LINE
  8
0
 10
-0.621317
 20
1.25864
 11
0.582683
 21
1.25864
  0
LINE
  8
0
 10
-0.621317
 20
1.19864
 11
0.582683
 21
1.19864
  0
ARC
  8
0
 10
0.582683
 20
1.07364
 40
0.125
 50
359.999955
 51
449.999992
  0
ARC
  8
0
 10
0.582683
 20
1.07364
 40
0.185
 50
359.999955
 51
449.999992
  0
LINE
  8
0
 10
0.767683
 20
1.073639
 11
0.767683
 21
0.788639
  0
LINE
  8
0
 10
0.707683
 20
1.073639
 11
0.707683
 21
0.78864
  0
LINE
  8
0
 10
0.767683
 20
0.788639
 11
0.707683
 21
0.78864
  0
LINE
  8
0
 10
-0.691682
 20
0.801681
 11
-0.631682
 21
0.801681
  0
LINE
  8
0
 10
-0.691682
 20
0.801681
 11
-0.691682
 21
1.024681
  0
LINE
  8
0
 10
-0.631682
 20
0.801681
 11
-0.631682
 21
1.024681
  0
ARC
  8
0
 10
-0.506682
 20
1.024681
 40
0.125
 50
89.999989
 51
179.999937
  0
ARC
  8
0
 10
-0.506682
 20
1.024681
 40
0.185
 50
89.999989
 51
179.999937
  0
LINE
  8
0
 10
-0.506682
 20
1.209681
 11
0.531318
 21
1.209681
  0
LINE
  8
0
 10
-0.506682
 20
1.149681
 11
0.531318
 21
1.149681
  0
ARC
  8
0
 10
0.531318
 20
1.024681
 40
0.125
 50
359.999983
 51
449.999992
  0
ARC
  8
0
 10
0.531318
 20
1.024681
 40
0.185
 50
359.999983
 51
449.999992
  0
LINE
  8
0
 10
0.716318
 20
1.024681
 11
0.716318
 21
0.778963
  0
LINE
  8
0
 10
0.656318
 20
1.024681
 11
0.656318
 21
0.778963
  0
ARC
  8
0
 10
0.776318
 20
0.778963
 40
0.06
 50
179.999978
 51
240.000007
  0
ARC
  8
0
 10
0.776318
 20
0.778963
 40
0.12
 50
179.999978
 51
240.000007
  0
LINE
  8
0
 10
0.746318
 20
0.727001
 11
0.746318
 21
0.727001
  0
LINE
  8
0
 10
0.716318
 20
0.67504
 11
0.716318
 21
0.67504
  0
ARC
  8
0
 10
0.686318
 20
0.623078
 40
0.06
 50
359.999983
 51
419.999998
  0
ARC
  8
0
 10
0.686318
 20
0.623078
 40
0.12
 50
359.999983
 51
419.999998
  0
LINE
  8
0
 10
0.806318
 20
0.623078
 11
0.806317
 21
-1.07364
  0
LINE
  8
0
 10
0.746318
 20
0.623078
 11
0.746317
 21
-1.07364
  0
ARC
  8
0
 10
0.621317
 20
-1.07364
 40
0.125
 50
270.000001
 51
359.999983
  0
ARC
  8
0
 10
0.621317
 20
-1.07364
 40
0.185
 50
270.000001
 51
359.999983
  0
LINE
  8
0
 10
0.621317
 20
-1.25864
 11
-0.582683
 21
-1.25864
  0
LINE
  8
0
 10
0.621317
 20
-1.19864
 11
-0.582683
 21
-1.19864
  0
ARC
  8
0
 10
-0.582683
 20
-1.07364
 40
0.125
 50
179.999937
 51
270.000001
  0
ARC
  8
0
 10
-0.582683
 20
-1.07364
 40
0.185
 50
179.999937
 51
270.000001
  0
LINE
  8
0
 10
-0.767683
 20
-1.07364
 11
-0.767683
 21
-0.78864
  0
LINE
  8
0
 10
-0.707683
 20
-1.07364
 11
-0.707683
 21
-0.78864
  0
LINE
  8
0
 10
-0.767683
 20
-0.78864
 11
-0.707683
 21
-0.78864
  0
ENDSEC
  0
EOF
