  0
SECTION
  2
HEADER
  9
$LIMMIN
 10
-1.617996
 20
-1.128513
  9
$LIMMAX
 10
1.617996
 20
0.811487
  9
$FLATLAND
 70
1
  0
ENDSEC
  0
SECTION
  2
ENTITIES
  0
LINE
  8
0
 10
-0.742996
 20
-1.128513
 11
-0.742996
 21
-1.027513
  0
LINE
  8
0
 10
-0.742996
 20
-1.128513
 11
-1.356996
 21
-1.128513
  0
LINE
  8
0
 10
-0.742996
 20
-1.027513
 11
-1.356996
 21
-1.027513
  0
ARC
  8
0
 10
-1.356996
 20
-0.867513
 40
0.16
 50
180.000019
 51
270.000001
  0
ARC
  8
0
 10
-1.356996
 20
-0.867513
 40
0.261
 50
180.000019
 51
270.000001
  0
LINE
  8
0
 10
-1.617996
 20
-0.867513
 11
-1.617996
 21
0.550487
  0
LINE
  8
0
 10
-1.516996
 20
-0.867513
 11
-1.516996
 21
0.550487
  0
ARC
  8
0
 10
-1.356996
 20
0.550487
 40
0.16
 50
90.000009
 51
180.000005
  0
ARC
  8
0
 10
-1.356996
 20
0.550487
 40
0.261
 50
90.000009
 51
180.000005
  0
LINE
  8
0
 10
-1.356996
 20
0.811487
 11
-0.601551
 21
0.811487
  0
LINE
  8
0
 10
-1.356996
 20
0.710487
 11
-0.601551
 21
0.710487
  0
LINE
  8
0
 10
-1.094996
 20
0.811487
 11
-1.094996
 21
0.710487
  0
LINE
  8
0
 10
-1.094996
 20
0.760987
 11
-0.619996
 21
0.760987
  0
LINE
  8
0
 10
-0.619996
 20
0.811487
 11
-0.619996
 21
0.710487
  0
ARC
  8
0
 10
-0.601551
 20
0.510487
 40
0.2
 50
50.000004
 51
90.000009
  0
ARC
  8
0
 10
-0.601551
 20
0.510487
 40
0.301
 50
50.000004
 51
90.000009
  0
LINE
  8
0
 10
-0.408072
 20
0.741067
 11
-0.25835
 21
0.615435
  0
LINE
  8
0
 10
-0.472994
 20
0.663696
 11
-0.323271
 21
0.538064
  0
ARC
  8
0
 10
-0.155504
 20
0.738002
 40
0.16
 50
-130.000001
 51
-89.999996
  0
ARC
  8
0
 10
-0.155504
 20
0.738002
 40
0.261
 50
-130.000001
 51
-89.999996
  0
LINE
  8
0
 10
-0.155504
 20
0.578002
 11
0.155504
 21
0.578002
  0
LINE
  8
0
 10
-0.155504
 20
0.477002
 11
0.155504
 21
0.477002
  0
LINE
  8
0
 10
-0.124403
 20
0.578002
 11
-0.124403
 21
0.477002
  0
LINE
  8
0
 10
-0.124403
 20
0.527502
 11
0.124403
 21
0.527502
  0
LINE
  8
0
 10
0.124403
 20
0.578002
 11
0.124403
 21
0.477002
  0
ARC
  8
0
 10
0.155504
 20
0.738002
 40
0.16
 50
-89.999996
 51
-50.
  0
ARC
  8
0
 10
0.155504
 20
0.738002
 40
0.261
 50
-89.999996
 51
-50.
  0
LINE
  8
0
 10
0.25835
 20
0.615435
 11
0.408072
 21
0.741067
  0
LINE
  8
0
 10
0.323271
 20
0.538064
 11
0.472994
 21
0.663696
  0
ARC
  8
0
 10
0.601551
 20
0.510487
 40
0.2
 50
90.000009
 51
130.000001
  0
ARC
  8
0
 10
0.601551
 20
0.510487
 40
0.301
 50
90.000009
 51
130.000001
  0
LINE
  8
0
 10
0.601551
 20
0.811487
 11
1.356996
 21
0.811487
  0
LINE
  8
0
 10
0.601551
 20
0.710487
 11
1.356996
 21
0.710487
  0
LINE
  8
0
 10
0.619996
 20
0.811487
 11
0.619996
 21
0.710487
  0
LINE
  8
0
 10
0.619996
 20
0.760987
 11
1.094996
 21
0.760987
  0
LINE
  8
0
 10
1.094996
 20
0.811487
 11
1.094996
 21
0.710487
  0
ARC
  8
0
 10
1.356996
 20
0.550487
 40
0.16
 50
0.000007
 51
90.000009
  0
ARC
  8
0
 10
1.356996
 20
0.550487
 40
0.261
 50
0.000007
 51
90.000009
  0
LINE
  8
0
 10
1.617996
 20
0.550487
 11
1.617996
 21
-0.867513
  0
LINE
  8
0
 10
1.516996
 20
0.550487
 11
1.516996
 21
-0.867513
  0
ARC
  8
0
 10
1.356996
 20
-0.867513
 40
0.16
 50
270.000001
 51
360.00001
  0
ARC
  8
0
 10
1.356996
 20
-0.867513
 40
0.261
 50
270.000001
 51
360.00001
  0
LINE
  8
0
 10
1.356996
 20
-1.128513
 11
0.742996
 21
-1.128512
  0
LINE
  8
0
 10
1.356996
 20
-1.027513
 11
0.742996
 21
-1.027512
  0
LINE
  8
0
 10
0.742996
 20
-1.128512
 11
0.742996
 21
-1.027512
  0
ENDSEC
  0
EOF
