  0
SECTION
  2
HEADER
  9
$LIMMIN
 10
-1.625067
 20
-1.129621
  9
$LIMMAX
 10
1.625067
 20
0.810379
  9
$FLATLAND
 70
1
  0
ENDSEC
  0
SECTION
  2
ENTITIES
  0
LINE
  8
0
 10
-0.750067
 20
-1.129621
 11
-0.750067
 21
-1.039621
  0
LINE
  8
0
 10
-0.750067
 20
-1.129621
 11
-1.375067
 21
-1.129621
  0
LINE
  8
0
 10
-0.750067
 20
-1.039621
 11
-1.375067
 21
-1.039621
  0
ARC
  8
0
 10
-1.375067
 20
-0.879621
 40
0.16
 50
180.000019
 51
270.000001
  0
ARC
  8
0
 10
-1.375067
 20
-0.879621
 40
0.25
 50
180.000019
 51
270.000001
  0
LINE
  8
0
 10
-1.625067
 20
-0.879621
 11
-1.625067
 21
0.560379
  0
LINE
  8
0
 10
-1.535067
 20
-0.879621
 11
-1.535067
 21
0.560379
  0
ARC
  8
0
 10
-1.375067
 20
0.560379
 40
0.16
 50
90.000009
 51
180.000005
  0
ARC
  8
0
 10
-1.375067
 20
0.560379
 40
0.25
 50
90.000009
 51
180.000005
  0
LINE
  8
0
 10
-1.375067
 20
0.810379
 11
-0.604618
 21
0.810379
  0
LINE
  8
0
 10
-1.375067
 20
0.720379
 11
-0.604618
 21
0.720379
  0
LINE
  8
0
 10
-1.102067
 20
0.810379
 11
-1.102067
 21
0.720379
  0
LINE
  8
0
 10
-1.102067
 20
0.765379
 11
-0.627067
 21
0.765379
  0
LINE
  8
0
 10
-0.627067
 20
0.810379
 11
-0.627067
 21
0.720379
  0
ARC
  8
0
 10
-0.604618
 20
0.520379
 40
0.2
 50
50.000004
 51
90.000009
  0
ARC
  8
0
 10
-0.604618
 20
0.520379
 40
0.29
 50
50.000004
 51
90.000009
  0
LINE
  8
0
 10
-0.41821
 20
0.742532
 11
-0.262353
 21
0.611753
  0
LINE
  8
0
 10
-0.476061
 20
0.673588
 11
-0.320204
 21
0.542809
  0
ARC
  8
0
 10
-0.159507
 20
0.73432
 40
0.16
 50
-130.000001
 51
-89.999996
  0
ARC
  8
0
 10
-0.159507
 20
0.73432
 40
0.25
 50
-130.000001
 51
-89.999996
  0
LINE
  8
0
 10
-0.159507
 20
0.57432
 11
0.159507
 21
0.57432
  0
LINE
  8
0
 10
-0.159507
 20
0.48432
 11
0.159507
 21
0.48432
  0
LINE
  8
0
 10
-0.127606
 20
0.57432
 11
-0.127606
 21
0.48432
  0
LINE
  8
0
 10
-0.127606
 20
0.52932
 11
0.127606
 21
0.52932
  0
LINE
  8
0
 10
0.127606
 20
0.57432
 11
0.127606
 21
0.48432
  0
ARC
  8
0
 10
0.159507
 20
0.73432
 40
0.16
 50
-89.999996
 51
-50.
  0
ARC
  8
0
 10
0.159507
 20
0.73432
 40
0.25
 50
-89.999996
 51
-50.
  0
LINE
  8
0
 10
0.262353
 20
0.611753
 11
0.41821
 21
0.742532
  0
LINE
  8
0
 10
0.320204
 20
0.542809
 11
0.476061
 21
0.673588
  0
ARC
  8
0
 10
0.604618
 20
0.520379
 40
0.2
 50
90.000009
 51
130.000001
  0
ARC
  8
0
 10
0.604618
 20
0.520379
 40
0.29
 50
90.000009
 51
130.000001
  0
LINE
  8
0
 10
0.604618
 20
0.810379
 11
1.375067
 21
0.810379
  0
LINE
  8
0
 10
0.604618
 20
0.720379
 11
1.375067
 21
0.720379
  0
LINE
  8
0
 10
0.627067
 20
0.810379
 11
0.627067
 21
0.720379
  0
LINE
  8
0
 10
0.627067
 20
0.765379
 11
1.102067
 21
0.765379
  0
LINE
  8
0
 10
1.102067
 20
0.810379
 11
1.102067
 21
0.720379
  0
ARC
  8
0
 10
1.375067
 20
0.560379
 40
0.16
 50
0.000007
 51
90.000009
  0
ARC
  8
0
 10
1.375067
 20
0.560379
 40
0.25
 50
0.000007
 51
90.000009
  0
LINE
  8
0
 10
1.625067
 20
0.560379
 11
1.625067
 21
-0.879621
  0
LINE
  8
0
 10
1.535067
 20
0.560379
 11
1.535067
 21
-0.879621
  0
ARC
  8
0
 10
1.375067
 20
-0.879621
 40
0.16
 50
270.000001
 51
360.00001
  0
ARC
  8
0
 10
1.375067
 20
-0.879621
 40
0.25
 50
270.000001
 51
360.00001
  0
LINE
  8
0
 10
1.375067
 20
-1.129621
 11
0.750067
 21
-1.129621
  0
LINE
  8
0
 10
1.375067
 20
-1.039621
 11
0.750067
 21
-1.039621
  0
LINE
  8
0
 10
0.750067
 20
-1.129621
 11
0.750067
 21
-1.039621
  0
ENDSEC
  0
EOF
